<svg xmlns="http://www.w3.org/2000/svg" version="1.1" xmlns:xlink="http://www.w3.org/1999/xlink" xmlns:svgjs="http://svgjs.dev/svgjs" width="1000" height="224" viewBox="0 0 1000 224"><g transform="matrix(1,0,0,1,-0.6060606060606233,0.4878731528179685)"><svg viewBox="0 0 396 89" data-background-color="#ffffff" preserveAspectRatio="xMidYMid meet" height="224" width="1000" xmlns="http://www.w3.org/2000/svg" xmlns:xlink="http://www.w3.org/1999/xlink"><g id="tight-bounds" transform="matrix(1,0,0,1,0.2400000000000091,-0.1938424580392848)"><svg viewBox="0 0 395.52 89.38767474636776" height="89.38767474636776" width="395.52"><g><svg viewBox="0 0 540.7933548103933 122.21950977141105" height="89.38767474636776" width="395.52"><g transform="matrix(1,0,0,1,145.27335481039339,12.274475546862554)"><svg viewBox="0 0 395.52 97.67055867768595" height="97.67055867768595" width="395.52"><g id="textblocktransform"><svg viewBox="0 0 395.52 97.67055867768595" height="97.67055867768595" width="395.52" id="textblock"><g><svg viewBox="0 0 395.52 97.67055867768595" height="97.67055867768595" width="395.52"><g transform="matrix(1,0,0,1,0,0)"><svg width="395.52" viewBox="5.699999809265137 -37.099998474121094 151.24000549316406 37.349998474121094" height="97.67055867768595" data-palette-color="#1f1f1f"><path d="M30.85 0L16.55-16.45 9.4-9.2 9.4 0 5.7 0 5.7-35 9.4-35 9.4-13.85 29.95-35 34.2-35 19.05-19.15 35.25 0 30.85 0ZM54.35-32Q49.2-32 46.67-29.68 44.15-27.35 44.15-22.95L44.15-22.95 44.15-18.05 60.85-18.05 60.85-14.85 44.15-14.85 44.15 0 40.45 0 40.45-23Q40.45-28.75 44.05-32.02 47.65-35.3 54.2-35.3L54.2-35.3Q60.55-35.3 64.4-32.55L64.4-32.55 63.05-29.5Q59.65-32 54.35-32L54.35-32ZM77.5 0.25Q73.95 0.25 72.02-1.75 70.1-3.75 70.1-7.3L70.1-7.3 70.1-37.1 73.65-37.1 73.65-7.6Q73.65-5.25 74.75-4.03 75.85-2.8 78.05-2.8L78.05-2.8Q79.45-2.8 80.45-3.25L80.45-3.25 80.7-0.3Q79.15 0.25 77.5 0.25L77.5 0.25ZM95.79 0.25Q91.99 0.25 88.94-1.48 85.89-3.2 84.14-6.25 82.39-9.3 82.39-13.15L82.39-13.15Q82.39-17 84.14-20.05 85.89-23.1 88.94-24.8 91.99-26.5 95.79-26.5L95.79-26.5Q99.59-26.5 102.64-24.8 105.69-23.1 107.42-20.05 109.14-17 109.14-13.15L109.14-13.15Q109.14-9.3 107.42-6.25 105.69-3.2 102.64-1.48 99.59 0.25 95.79 0.25L95.79 0.25ZM95.79-2.9Q98.59-2.9 100.82-4.17 103.04-5.45 104.29-7.8 105.54-10.15 105.54-13.15L105.54-13.15Q105.54-16.15 104.29-18.5 103.04-20.85 100.82-22.13 98.59-23.4 95.79-23.4L95.79-23.4Q92.99-23.4 90.77-22.13 88.54-20.85 87.27-18.5 85.99-16.15 85.99-13.15L85.99-13.15Q85.99-10.15 87.27-7.8 88.54-5.45 90.77-4.17 92.99-2.9 95.79-2.9L95.79-2.9ZM153.39-26.3L156.94-26.3 156.94-11.75Q156.94-5.9 154.14-2.83 151.34 0.25 145.89 0.25L145.89 0.25Q142.44 0.25 140.12-1.07 137.79-2.4 136.54-5.3L136.54-5.3Q135.29-2.45 132.99-1.1 130.69 0.25 127.19 0.25L127.19 0.25Q121.74 0.25 118.94-2.83 116.14-5.9 116.14-11.75L116.14-11.75 116.14-26.3 119.69-26.3 119.69-12.05Q119.69-7.4 121.49-5.18 123.29-2.95 127.19-2.95L127.19-2.95Q131.04-2.95 132.92-5.2 134.79-7.45 134.79-12.15L134.79-12.15 134.79-26.3 138.34-26.3 138.34-12.15Q138.34-7.45 140.19-5.2 142.04-2.95 145.94-2.95L145.94-2.95Q149.74-2.95 151.57-5.18 153.39-7.4 153.39-12.05L153.39-12.05 153.39-26.3Z" opacity="1" transform="matrix(1,0,0,1,0,0)" fill="#1f1f1f" class="undefined-text-0" data-fill-palette-color="primary" id="text-0"></path></svg></g></svg></g></svg></g></svg></g><g><svg viewBox="0 0 122.21567999999999 122.21950977141105" height="122.21950977141105" width="122.21567999999999"><g><svg xmlns="http://www.w3.org/2000/svg" xmlns:xlink="http://www.w3.org/1999/xlink" version="1.1" x="0" y="0" viewBox="18.350997924804688 18.347999572753906 63.30200958251953 63.303993225097656" enable-background="new 0 0 100 100" xml:space="preserve" height="122.21950977141105" width="122.21567999999999" class="icon-icon-0" data-fill-palette-color="accent" id="icon-0"><g fill="#1e1e3b" data-fill-palette-color="accent"><path fill="#1e1e3b" d="M80.951 48.597c-4.329-3.261-9.009-4.911-13.907-4.911-0.107 0-0.213 0-0.32 0.002-0.104-0.002-0.212-0.002-0.318-0.002-0.431 0-0.857 0.029-1.283 0.054 0.399-0.354 0.792-0.717 1.168-1.103 3.598-3.496 5.814-8.047 6.587-13.531 0.078-0.548-0.105-1.098-0.496-1.487-0.391-0.39-0.941-0.573-1.488-0.497-5.482 0.773-10.035 2.99-13.529 6.589-0.384 0.373-0.744 0.764-1.097 1.161 0.032-0.53 0.054-1.062 0.046-1.597 0.073-5.016-1.579-9.801-4.91-14.227-0.331-0.44-0.851-0.7-1.401-0.7-0.552 0-1.072 0.26-1.404 0.7-3.33 4.425-4.981 9.211-4.909 14.227-0.008 0.535 0.014 1.066 0.045 1.597-0.352-0.396-0.713-0.788-1.097-1.161-3.493-3.599-8.045-5.816-13.529-6.589-0.549-0.076-1.098 0.107-1.487 0.497-0.39 0.391-0.574 0.941-0.498 1.487 0.774 5.484 2.99 10.036 6.588 13.531 0.375 0.386 0.769 0.748 1.168 1.103-0.427-0.024-0.854-0.054-1.284-0.054-0.107 0-0.213 0-0.319 0.002-0.106-0.002-0.212-0.002-0.321-0.002-4.898 0-9.577 1.65-13.905 4.911-0.44 0.332-0.7 0.851-0.7 1.402 0 0.553 0.259 1.071 0.7 1.403 4.329 3.26 9.008 4.91 13.908 4.91 0.106 0 0.212 0 0.318-0.002 0.106 0.002 0.223-0.006 0.318 0.002 0.432 0 0.859-0.029 1.288-0.053-0.399 0.354-0.793 0.717-1.168 1.104-3.599 3.494-5.816 8.047-6.59 13.529-0.077 0.547 0.107 1.096 0.498 1.486 0.331 0.332 0.779 0.516 1.242 0.516 0.081 0 0.163-0.006 0.246-0.018 5.484-0.773 10.036-2.99 13.529-6.588 0.384-0.373 0.745-0.766 1.097-1.162-0.031 0.531-0.053 1.062-0.045 1.598-0.073 5.016 1.579 9.801 4.909 14.227 0.332 0.441 0.853 0.701 1.404 0.701 0.551 0 1.07-0.26 1.402-0.701 3.33-4.426 4.982-9.211 4.909-14.227 0.008-0.535-0.014-1.066-0.046-1.596 0.353 0.396 0.712 0.789 1.097 1.16 3.494 3.598 8.046 5.814 13.529 6.588 0.082 0.012 0.165 0.018 0.246 0.018 0.461 0 0.91-0.184 1.242-0.516 0.391-0.391 0.574-0.939 0.496-1.486-0.772-5.484-2.99-10.037-6.588-13.529-0.375-0.387-0.77-0.75-1.169-1.104 0.428 0.023 0.855 0.053 1.286 0.053 0.107 0 0.213 0 0.317-0.002 0.106 0.002 0.213 0.002 0.318 0.002 0.001 0 0 0 0.001 0 4.899 0 9.579-1.65 13.908-4.91 0.44-0.332 0.7-0.85 0.7-1.403C81.651 49.448 81.392 48.929 80.951 48.597zM48.784 49.509l1.217-1.215 1.214 1.215-1.214 1.215L48.784 49.509zM59.828 36.215c0.013-0.014 0.026-0.027 0.039-0.04 2.41-2.489 5.449-4.198 9.058-5.099-0.901 3.607-2.61 6.646-5.099 9.057-0.014 0.012-0.027 0.027-0.04 0.04-2.411 2.489-5.449 4.198-9.057 5.099C55.63 41.665 57.339 38.624 59.828 36.215zM47.2 33.247c-0.054-3.464 0.886-6.822 2.801-10.009 1.914 3.187 2.854 6.545 2.799 10.008 0 0.02 0 0.039 0 0.058 0.056 3.463-0.885 6.82-2.799 10.008-1.915-3.188-2.854-6.544-2.801-10.009C47.2 33.285 47.2 33.266 47.2 33.247zM31.077 31.076c3.608 0.9 6.647 2.609 9.056 5.099 0.014 0.013 0.027 0.026 0.04 0.04 2.489 2.409 4.199 5.448 5.098 9.057-3.606-0.901-6.646-2.61-9.057-5.101-0.013-0.013-0.027-0.026-0.039-0.039C33.686 37.722 31.977 34.684 31.077 31.076zM33.303 52.799c-0.009 0-0.018 0-0.027 0s-0.019 0-0.029 0c-0.096 0.002-0.192 0.004-0.289 0.004-3.361 0-6.62-0.941-9.72-2.803 3.099-1.861 6.358-2.801 9.717-2.801 0.098 0 0.195 0 0.292 0.002 0.019 0.001 0.038 0.001 0.056 0 0.098-0.002 0.195-0.002 0.292-0.002 3.359 0 6.619 0.939 9.717 2.801-3.099 1.862-6.359 2.803-9.719 2.803C33.496 52.803 33.399 52.801 33.303 52.799zM40.174 63.785c-0.014 0.014-0.027 0.025-0.041 0.039-2.409 2.488-5.448 4.197-9.056 5.1 0.899-3.607 2.608-6.646 5.098-9.059 0.013-0.012 0.026-0.025 0.041-0.039 2.409-2.488 5.448-4.197 9.056-5.098C44.371 58.336 42.662 61.375 40.174 63.785zM52.8 66.752c0.056 3.465-0.885 6.822-2.799 10.01-1.915-3.188-2.854-6.545-2.801-10.01 0-0.02 0-0.037 0-0.055-0.054-3.465 0.886-6.822 2.801-10.01 1.914 3.188 2.854 6.545 2.799 10.01C52.8 66.715 52.8 66.732 52.8 66.752zM68.924 68.924c-3.607-0.902-6.646-2.611-9.058-5.098-0.013-0.014-0.025-0.027-0.038-0.041-2.489-2.41-4.198-5.449-5.099-9.057 3.607 0.9 6.646 2.609 9.056 5.098 0.014 0.014 0.026 0.027 0.04 0.039C66.314 62.277 68.022 65.314 68.924 68.924zM67.042 52.803c-0.096 0-0.192-0.002-0.289-0.004-0.01 0-0.02 0-0.029 0-0.009 0-0.018 0-0.028 0-0.096 0.002-0.192 0.004-0.289 0.004-3.361 0-6.62-0.941-9.718-2.803 3.098-1.861 6.356-2.801 9.717-2.801 0.097 0 0.194 0 0.29 0.002 0.02 0.001 0.039 0.001 0.058 0 0.097-0.002 0.194-0.002 0.291-0.002 3.36 0 6.62 0.939 9.718 2.801C73.664 51.861 70.404 52.803 67.042 52.803z" data-fill-palette-color="accent"></path><circle fill="#1e1e3b" cx="66.725" cy="50" r="2.3" data-fill-palette-color="accent"></circle><circle fill="#1e1e3b" cx="33.276" cy="50" r="2.3" data-fill-palette-color="accent"></circle><circle fill="#1e1e3b" cx="50" cy="66.725" r="2.3" data-fill-palette-color="accent"></circle><circle fill="#1e1e3b" cx="50" cy="33.275" r="2.3" data-fill-palette-color="accent"></circle><circle fill="#1e1e3b" cx="61.827" cy="61.825" r="2.3" data-fill-palette-color="accent"></circle><circle fill="#1e1e3b" cx="38.174" cy="38.174" r="2.3" data-fill-palette-color="accent"></circle><circle fill="#1e1e3b" cx="38.174" cy="61.825" r="2.3" data-fill-palette-color="accent"></circle><circle fill="#1e1e3b" cx="61.827" cy="38.174" r="2.3" data-fill-palette-color="accent"></circle></g></svg></g></svg></g></svg></g><defs></defs></svg><rect width="395.52" height="89.38767474636776" fill="none" stroke="none" visibility="hidden"></rect></g></svg></g></svg>